<svg width="256" height="256" viewBox="0 0 256 256" fill="none" xmlns="http://www.w3.org/2000/svg">
<defs>
<linearGradient id="grad1" x1="0%" y1="0%" x2="100%" y2="100%">
  <stop offset="0%" style="stop-color:#6366F1;stop-opacity:1" />
  <stop offset="100%" style="stop-color:#A855F7;stop-opacity:1" />
</linearGradient>
</defs>
<path d="M128 24C62.938 24 12 74.938 12 140C12 183.438 38.812 220.188 78 233.375C80.938 234.062 84 231.562 84 228.5V196.938C84 194.312 85.938 192.062 88.312 191.188C128.562 176.188 160 148.188 160 112C160 72.312 139.688 40 100 40C94.188 40 88.688 40.812 83.5 42.188" fill="url(#grad1)"/>
<path d="M172.5 84.188C167.312 82.812 161.812 82 156 82C116.312 82 96 114.312 96 154C96 190.188 127.438 218.188 167.688 203.188C170.062 202.312 172 200.062 172 197.438V165.875C172 162.812 175.062 160.312 178 161C217.188 174.188 244 210.938 244 254C244 166.938 215.062 97.938 172.5 84.188Z" fill="url(#grad1)" opacity="0.7"/>
</svg>